<svg width="35" height="35" viewBox="0 0 35 35" fill="none" xmlns="http://www.w3.org/2000/svg">
<path d="M24.8904 9.94092C25.4206 9.94092 25.8495 10.3707 25.8495 10.9001C25.8495 11.4294 25.4206 11.8592 24.8904 11.8592C24.361 11.8592 23.9321 11.4294 23.9321 10.9001C23.9321 10.3707 24.361 9.94092 24.8904 9.94092Z" fill="#006D77"/>
<mask id="mask0_201_1483" style="mask-type:luminance" maskUnits="userSpaceOnUse" x="0" y="17" width="26" height="18">
<path d="M0 17.3179H25.9364V34.4748H0V17.3179Z" fill="white"/>
</mask>
<g mask="url(#mask0_201_1483)">
<path d="M25.7652 26.1159C25.8061 27.1281 25.5996 28.1617 25.1354 29.2148C24.593 29.4251 24.045 29.613 23.4841 29.7758C21.9676 30.2242 20.3973 30.5126 18.812 30.6345C17.2258 30.7564 15.4963 30.9006 13.9101 30.694C12.3277 30.4875 11.3378 30.321 12.3723 30.6717C13.4152 31.0262 14.4934 31.2829 15.5838 31.4402C17.7868 31.7528 19.9647 31.5741 22.149 31.2048C22.8384 31.0885 23.5622 30.9918 24.233 30.7852C23.4468 32.123 22.5537 32.9036 20.667 34.1316C19.5572 34.3576 18.411 34.473 17.2351 34.473C7.74956 34.473 0.0567497 26.8109 0 17.3384C0.0753558 17.4575 4.21807 24.126 11.2904 26.5197C18.0156 28.8008 24.9884 26.3978 25.7652 26.1159Z" fill="#006D77"/>
</g>
<mask id="mask1_201_1483" style="mask-type:luminance" maskUnits="userSpaceOnUse" x="0" y="0" width="35" height="28">
<path d="M0 0H34.4739V27.7961H0V0Z" fill="white"/>
</mask>
<g mask="url(#mask1_201_1483)">
<path d="M31.3008 26.7738C31.7929 25.022 31.6645 23.0702 30.7863 21.4719C30.1379 20.2867 29.1257 19.3536 28.2112 18.3563C27.2958 17.3636 26.5906 16.2472 26.7125 14.9001C26.8632 13.2423 31.6645 14.1196 33.6852 14.4899C33.9113 14.5308 34.0517 14.2582 33.8927 14.0945C33.3661 13.5651 32.2972 12.8637 30.5826 12.3994C30.1258 12.2776 29.7686 12.1045 29.5109 12.0143C29.3322 12.0301 29.0792 12.0701 28.8029 12.1957C28.3396 12.4022 28.0633 12.7195 27.9321 12.8944C28.0103 12.6562 28.1889 12.2338 28.5936 11.8794C28.7471 11.7445 28.8968 11.6505 29.0317 11.5789C29.0317 11.5789 28.9127 11.35 28.8875 11.2114C28.6429 9.89874 27.894 8.6763 26.7692 7.96181C23.7457 6.03791 20.1918 8.62978 19.5806 11.7668C19.2169 13.6312 19.6309 16.063 20.7491 17.6362C21.846 19.175 23.1372 20.5751 24.2592 22.098C25.1709 23.3391 25.6193 24.0722 25.7003 25.4044C25.0956 24.4703 21.1129 19.1247 14.5513 16.9022C7.4567 14.4992 0.0857744 17.3069 0.00390625 17.3385C0.00390625 17.3041 0.00390625 17.2725 0.00390625 17.238C0.00390625 7.71807 7.71905 0.00292969 17.2399 0.00292969C26.7599 0.00292969 34.475 7.71807 34.475 17.238C34.475 21.1147 33.1931 24.6927 31.0347 27.573C31.1343 27.3125 31.2254 27.0436 31.3008 26.7738Z" fill="#006D77"/>
</g>
</svg>
