<svg width="195" height="35" viewBox="0 0 195 35" fill="none" xmlns="http://www.w3.org/2000/svg">
<path d="M46.1614 26.0976C50.0769 26.0976 52.4847 24.2328 52.4847 21.1177C52.4847 18.5001 50.7605 16.9425 46.6568 15.9755C44.1322 15.3849 43.2582 14.7468 43.2582 13.7322C43.2582 12.6484 44.2252 11.9864 45.8066 11.9864C47.5286 11.9864 48.5669 12.8842 48.5669 14.3703H52.1775C52.1775 11.0432 49.6767 8.91884 45.759 8.91884C41.9602 8.91884 39.6001 10.7836 39.6001 13.8036C39.6001 16.4925 41.4173 18.0977 45.2874 18.9241C47.6238 19.4195 48.6859 20.1031 48.6859 21.2604C48.6859 22.368 47.6951 23.0062 46.1376 23.0062C44.3204 23.0062 43.1392 22.0847 43.1392 20.5055H39.4595C39.4595 23.9256 42.0078 26.0976 46.1614 26.0976Z" fill="#006D77"/>
<path d="M61.4263 26.0974C65.5323 26.0974 68.364 23.43 68.364 19.5599C68.364 15.7157 65.5323 13.0484 61.4263 13.0484C57.2966 13.0484 54.4648 15.7157 54.4648 19.5599C54.4648 23.43 57.2966 26.0974 61.4263 26.0974ZM58.004 19.5599C58.004 17.5307 59.421 16.1159 61.4263 16.1159C63.4317 16.1159 64.8249 17.5307 64.8249 19.5599C64.8249 21.5891 63.4317 23.006 61.4263 23.006C59.421 23.006 58.004 21.5891 58.004 19.5599Z" fill="#006D77"/>
<path d="M78.578 26.0976C82.2837 26.0976 84.9035 23.4064 84.9035 19.5601C84.9035 15.7614 82.2837 13.0486 78.578 13.0486C77.0442 13.0486 75.7008 13.5202 74.6624 14.3466V8.30664H71.0757V25.7666H73.7409L74.1432 24.3518C75.253 25.4594 76.7846 26.0976 78.578 26.0976ZM74.5197 19.5601C74.5197 17.5547 75.9366 16.1161 77.942 16.1161C79.9712 16.1161 81.3622 17.5547 81.3622 19.5601C81.3622 21.5893 79.9712 23.0062 77.942 23.0062C75.9366 23.0062 74.5197 21.5893 74.5197 19.5601Z" fill="#006D77"/>
<path d="M91.7475 26.0022C93.5863 26.0022 95.0985 25.4116 96.1585 24.3278L96.5609 25.7664H99.226V18.3095C99.226 15.03 97.0087 13.0484 93.3051 13.0484C90.1424 13.0484 88.0656 14.5584 87.6178 17.2473H91.0618C91.2759 16.3755 92.1715 15.785 93.3267 15.785C94.7437 15.785 95.7107 16.5875 95.7107 17.8141V18.3809H91.2283C88.6562 18.3809 87.0034 19.8671 87.0034 22.1559C87.0034 24.5398 88.8206 26.0022 91.7475 26.0022ZM90.5426 22.0152C90.5426 21.1651 91.2521 20.6221 92.3359 20.6221H95.7345C95.6631 22.2986 94.3651 23.43 92.5717 23.43C91.3452 23.43 90.5426 22.8633 90.5426 22.0152Z" fill="#006D77"/>
<path d="M108.546 25.7679H110.813V22.6527H109.324C107.91 22.6527 107.25 21.9691 107.25 20.5306V16.3056H110.646V13.3809H107.25V10.1705H104.466L104.252 11.7757C104.063 13.0499 103.709 13.3809 102.365 13.3809H101.255V16.3056H103.663V21.0714C103.663 24.0935 105.409 25.7679 108.546 25.7679Z" fill="#006D77"/>
<path d="M119.331 25.7671H127.095C130.446 25.7671 132.711 23.9261 132.711 21.142C132.711 19.3724 131.789 17.9576 130.231 17.2718C131.482 16.5406 132.215 15.2427 132.215 13.6873C132.215 10.9723 130.067 9.25034 126.716 9.25034H119.331V25.7671ZM123.036 22.7947V18.8294H126.528C128.014 18.8294 128.864 19.5606 128.864 20.811C128.864 22.0635 128.014 22.7947 126.528 22.7947H123.036ZM123.036 15.976V12.2227H126.149C127.59 12.2227 128.393 12.8847 128.393 14.0875C128.393 15.2903 127.59 15.976 126.149 15.976H123.036Z" fill="#006D77"/>
<path d="M141.252 26.0974C144.295 26.0974 146.703 24.5398 147.787 21.9201H144.155C143.564 22.7464 142.502 23.218 141.323 23.218C139.694 23.218 138.42 22.2986 138.089 20.5983H148.023C148.235 16.0683 145.546 13.0484 141.299 13.0484C137.288 13.0484 134.526 15.7157 134.526 19.5599C134.526 23.43 137.265 26.0974 141.252 26.0974ZM138.113 18.3333C138.515 16.8233 139.742 15.9039 141.323 15.9039C142.974 15.9039 144.155 16.8233 144.555 18.3333H138.113Z" fill="#006D77"/>
<path d="M158.217 26.0976C161.923 26.0976 164.543 23.4064 164.543 19.5601C164.543 15.7614 161.923 13.0486 158.217 13.0486C156.683 13.0486 155.34 13.5202 154.302 14.3466V8.30664H150.715V25.7666H153.38L153.782 24.3518C154.892 25.4594 156.424 26.0976 158.217 26.0976ZM154.159 19.5601C154.159 17.5547 155.576 16.1161 157.581 16.1161C159.61 16.1161 161.001 17.5547 161.001 19.5601C161.001 21.5893 159.61 23.0062 157.581 23.0062C155.576 23.0062 154.159 21.5893 154.159 19.5601Z" fill="#006D77"/>
<path d="M173.102 26.0974C176.145 26.0974 178.553 24.5398 179.637 21.9201H176.005C175.414 22.7464 174.352 23.218 173.173 23.218C171.544 23.218 170.27 22.2986 169.939 20.5983H179.873C180.085 16.0683 177.396 13.0484 173.149 13.0484C169.139 13.0484 166.376 15.7157 166.376 19.5599C166.376 23.43 169.115 26.0974 173.102 26.0974ZM169.963 18.3333C170.365 16.8233 171.592 15.9039 173.173 15.9039C174.824 15.9039 176.005 16.8233 176.405 18.3333H169.963Z" fill="#006D77"/>
<path d="M182.565 25.7666H186.152V21.0485H188.086L190.823 25.7666H195L191.437 19.8435C192.097 19.2551 192.616 18.4287 193.018 17.3189L194.457 13.3796H190.587L189.715 16.0685C189.244 17.4617 188.582 17.8381 187.072 17.8381H186.152V8.30664H182.565V25.7666Z" fill="#006D77"/>
<path d="M24.8904 9.94102C25.4206 9.94102 25.8495 10.3708 25.8495 10.9002C25.8495 11.4295 25.4206 11.8593 24.8904 11.8593C24.361 11.8593 23.9321 11.4295 23.9321 10.9002C23.9321 10.3708 24.361 9.94102 24.8904 9.94102Z" fill="#006D77"/>
<mask id="mask0_106_2414" style="mask-type:luminance" maskUnits="userSpaceOnUse" x="0" y="17" width="26" height="18">
<path d="M0 17.3178H25.9364V34.4748H0V17.3178Z" fill="white"/>
</mask>
<g mask="url(#mask0_106_2414)">
<path d="M25.7652 26.1159C25.8061 27.1281 25.5996 28.1617 25.1354 29.2148C24.593 29.425 24.045 29.613 23.4841 29.7758C21.9676 30.2242 20.3973 30.5126 18.812 30.6345C17.2258 30.7563 15.4963 30.9005 13.9101 30.694C12.3277 30.4875 11.3378 30.3209 12.3723 30.6717C13.4152 31.0261 14.4934 31.2829 15.5838 31.4401C17.7868 31.7527 19.9647 31.5741 22.149 31.2047C22.8384 31.0885 23.5622 30.9917 24.233 30.7852C23.4468 32.123 22.5537 32.9035 20.667 34.1315C19.5572 34.3576 18.411 34.473 17.2351 34.473C7.74956 34.473 0.0567497 26.8108 0 17.3383C0.0753558 17.4574 4.21807 24.1259 11.2904 26.5197C18.0156 28.8008 24.9884 26.3978 25.7652 26.1159Z" fill="#006D77"/>
</g>
<mask id="mask1_106_2414" style="mask-type:luminance" maskUnits="userSpaceOnUse" x="0" y="0" width="35" height="28">
<path d="M0 0H34.4739V27.7961H0V0Z" fill="white"/>
</mask>
<g mask="url(#mask1_106_2414)">
<path d="M31.3008 26.7738C31.7929 25.022 31.6645 23.0702 30.7863 21.4719C30.1379 20.2867 29.1257 19.3536 28.2112 18.3563C27.2958 17.3636 26.5906 16.2472 26.7125 14.9001C26.8632 13.2423 31.6645 14.1196 33.6852 14.4899C33.9113 14.5308 34.0517 14.2582 33.8927 14.0945C33.3661 13.5651 32.2972 12.8637 30.5826 12.3994C30.1258 12.2776 29.7686 12.1045 29.5109 12.0143C29.3322 12.0301 29.0792 12.0701 28.8029 12.1957C28.3396 12.4022 28.0633 12.7195 27.9321 12.8944C28.0103 12.6562 28.1889 12.2338 28.5936 11.8794C28.7471 11.7445 28.8968 11.6505 29.0317 11.5789C29.0317 11.5789 28.9127 11.35 28.8875 11.2114C28.6429 9.89874 27.894 8.6763 26.7692 7.96181C23.7457 6.03791 20.1918 8.62978 19.5806 11.7668C19.2169 13.6312 19.6309 16.063 20.7491 17.6362C21.846 19.175 23.1372 20.5751 24.2592 22.098C25.1709 23.3391 25.6193 24.0722 25.7003 25.4044C25.0956 24.4703 21.1129 19.1247 14.5513 16.9022C7.4567 14.4992 0.0857744 17.3069 0.00390625 17.3385C0.00390625 17.3041 0.00390625 17.2725 0.00390625 17.238C0.00390625 7.71807 7.71905 0.00292969 17.2399 0.00292969C26.7599 0.00292969 34.475 7.71807 34.475 17.238C34.475 21.1147 33.1931 24.6927 31.0347 27.573C31.1343 27.3125 31.2254 27.0436 31.3008 26.7738Z" fill="#006D77"/>
</g>
</svg>
