<svg width="51" height="51" viewBox="0 0 51 51" fill="none" xmlns="http://www.w3.org/2000/svg">
<path d="M36.8219 14.7065C37.6064 14.7065 38.2408 15.3424 38.2408 16.1255C38.2408 16.9086 37.6064 17.5444 36.8219 17.5444C36.0388 17.5444 35.4043 16.9086 35.4043 16.1255C35.4043 15.3424 36.0388 14.7065 36.8219 14.7065Z" fill="white"/>
<mask id="mask0_201_1374" style="mask-type:luminance" maskUnits="userSpaceOnUse" x="0" y="25" width="39" height="27">
<path d="M0 25.6194H38.3694V51.0008H0V25.6194Z" fill="white"/>
</mask>
<g mask="url(#mask0_201_1374)">
<path d="M38.1162 38.6349C38.1768 40.1323 37.8712 41.6614 37.1845 43.2193C36.3821 43.5304 35.5715 43.8084 34.7416 44.0492C32.4982 44.7126 30.175 45.1392 27.8299 45.3195C25.4833 45.4998 22.9248 45.7131 20.5782 45.4076C18.2372 45.1021 16.7728 44.8557 18.3032 45.3746C19.846 45.8989 21.4411 46.2788 23.0541 46.5114C26.3132 46.9738 29.5351 46.7096 32.7666 46.1632C33.7864 45.9912 34.8572 45.848 35.8495 45.5425C34.6865 47.5216 33.3653 48.6763 30.5742 50.493C28.9323 50.8274 27.2367 50.9981 25.4971 50.9981C11.4645 50.9981 0.0839536 39.663 0 25.6497C0.111479 25.8258 6.24008 35.691 16.7026 39.2322C26.6518 42.6069 36.967 39.0519 38.1162 38.6349Z" fill="white"/>
</g>
<mask id="mask1_201_1374" style="mask-type:luminance" maskUnits="userSpaceOnUse" x="0" y="0" width="51" height="42">
<path d="M0 0H50.9996V41.1207H0V0Z" fill="white"/>
</mask>
<g mask="url(#mask1_201_1374)">
<path d="M46.305 39.6084C47.033 37.0168 46.8431 34.1294 45.5439 31.7649C44.5846 30.0115 43.0872 28.6311 41.7343 27.1557C40.3801 25.6873 39.3368 24.0357 39.5171 22.0428C39.7401 19.5903 46.8431 20.8881 49.8324 21.4359C50.1668 21.4965 50.3747 21.0932 50.1393 20.851C49.3603 20.0679 47.779 19.0302 45.2425 18.3434C44.5667 18.1631 44.0382 17.9071 43.657 17.7736C43.3928 17.797 43.0184 17.8562 42.6097 18.042C41.9243 18.3475 41.5155 18.8168 41.3214 19.0756C41.4371 18.7232 41.7013 18.0984 42.3 17.5741C42.5271 17.3745 42.7487 17.2355 42.9482 17.1295C42.9482 17.1295 42.7721 16.7909 42.7349 16.5859C42.3729 14.6439 41.265 12.8355 39.6011 11.7785C35.1282 8.93236 29.8708 12.7667 28.9665 17.4075C28.4284 20.1656 29.0409 23.7632 30.6952 26.0905C32.3178 28.3669 34.2281 30.4382 35.8879 32.6912C37.2366 34.5271 37.9 35.6116 38.0197 37.5825C37.1252 36.2007 31.2333 28.2926 21.5263 25.0046C11.0308 21.4497 0.126484 25.6033 0.00537109 25.6501C0.00537109 25.5992 0.00537109 25.5524 0.00537109 25.5015C0.00537109 11.4179 11.4189 0.00439453 25.5038 0.00439453C39.5873 0.00439453 51.0009 11.4179 51.0009 25.5015C51.0009 31.2364 49.1043 36.5296 45.9114 40.7906C46.0586 40.4052 46.1935 40.0075 46.305 39.6084Z" fill="white"/>
</g>
</svg>
