<svg width="289" height="51" viewBox="0 0 289 51" fill="none" xmlns="http://www.w3.org/2000/svg">
<path d="M68.2896 38.6079C74.0821 38.6079 77.6441 35.8492 77.6441 31.2408C77.6441 27.3684 75.0934 25.0642 69.0224 23.6337C65.2877 22.76 63.9947 21.8159 63.9947 20.3149C63.9947 18.7116 65.4253 17.7323 67.7647 17.7323C70.3122 17.7323 71.8483 19.0604 71.8483 21.259H77.1896C77.1896 16.337 73.4901 13.1942 67.6943 13.1942C62.0746 13.1942 58.583 15.9529 58.583 20.4205C58.583 24.3985 61.2713 26.7732 66.9966 27.9957C70.453 28.7286 72.0243 29.7399 72.0243 31.452C72.0243 33.0906 70.5586 34.0347 68.2544 34.0347C65.5661 34.0347 63.8187 32.6713 63.8187 30.3351H58.375C58.375 35.3948 62.145 38.6079 68.2896 38.6079Z" fill="white"/>
<path d="M90.8723 38.6076C96.9465 38.6076 101.136 34.6617 101.136 28.9363C101.136 23.2493 96.9465 19.3034 90.8723 19.3034C84.7629 19.3034 80.5737 23.2493 80.5737 28.9363C80.5737 34.6617 84.7629 38.6076 90.8723 38.6076ZM85.8094 28.9363C85.8094 25.9344 87.9056 23.8414 90.8723 23.8414C93.839 23.8414 95.9 25.9344 95.9 28.9363C95.9 31.9382 93.839 34.0344 90.8723 34.0344C87.9056 34.0344 85.8094 31.9382 85.8094 28.9363Z" fill="white"/>
<path d="M116.246 38.6079C121.728 38.6079 125.603 34.6267 125.603 28.9366C125.603 23.3168 121.728 19.3036 116.246 19.3036C113.977 19.3036 111.989 20.0013 110.453 21.2238V12.2886H105.147V38.1183H109.09L109.685 36.0253C111.327 37.6638 113.593 38.6079 116.246 38.6079ZM110.242 28.9366C110.242 25.9699 112.338 23.8417 115.305 23.8417C118.307 23.8417 120.364 25.9699 120.364 28.9366C120.364 31.9385 118.307 34.0347 115.305 34.0347C112.338 34.0347 110.242 31.9385 110.242 28.9366Z" fill="white"/>
<path d="M135.729 38.4668C138.449 38.4668 140.686 37.5931 142.254 35.9898L142.849 38.118H146.792V27.0865C146.792 22.2349 143.512 19.3034 138.033 19.3034C133.354 19.3034 130.282 21.5372 129.619 25.5152H134.714C135.031 24.2254 136.356 23.3518 138.065 23.3518C140.161 23.3518 141.592 24.5391 141.592 26.3537V27.1921H134.961C131.155 27.1921 128.71 29.3907 128.71 32.7767C128.71 36.3034 131.399 38.4668 135.729 38.4668ZM133.946 32.5687C133.946 31.3109 134.996 30.5077 136.599 30.5077H141.627C141.521 32.9879 139.601 34.6617 136.948 34.6617C135.133 34.6617 133.946 33.8232 133.946 32.5687Z" fill="white"/>
<path d="M160.579 38.1202H163.933V33.5117H161.732C159.639 33.5117 158.662 32.5005 158.662 30.3722V24.122H163.687V19.7952H158.662V15.046H154.544L154.227 17.4206C153.948 19.3056 153.424 19.7952 151.436 19.7952H149.794V24.122H153.356V31.1723C153.356 35.6432 155.939 38.1202 160.579 38.1202Z" fill="white"/>
<path d="M176.534 38.119H188.02C192.977 38.119 196.328 35.3955 196.328 31.2767C196.328 28.6589 194.964 26.5659 192.66 25.5514C194.51 24.4697 195.595 22.5495 195.595 20.2485C195.595 16.2321 192.417 13.6846 187.46 13.6846H176.534V38.119ZM182.016 33.7218V27.8556H187.181C189.38 27.8556 190.637 28.9373 190.637 30.7871C190.637 32.6401 189.38 33.7218 187.181 33.7218H182.016ZM182.016 23.6344V18.0819H186.621C188.752 18.0819 189.94 19.0612 189.94 20.8405C189.94 22.6199 188.752 23.6344 186.621 23.6344H182.016Z" fill="white"/>
<path d="M208.963 38.6076C213.466 38.6076 217.028 36.3034 218.631 32.4278H213.258C212.384 33.6504 210.813 34.348 209.069 34.348C206.659 34.348 204.774 32.9879 204.284 30.4725H218.98C219.294 23.771 215.316 19.3034 209.033 19.3034C203.1 19.3034 199.013 23.2493 199.013 28.9363C199.013 34.6617 203.065 38.6076 208.963 38.6076ZM204.319 27.1217C204.915 24.8879 206.729 23.5278 209.069 23.5278C211.51 23.5278 213.258 24.8879 213.85 27.1217H204.319Z" fill="white"/>
<path d="M234.062 38.6079C239.544 38.6079 243.419 34.6267 243.419 28.9366C243.419 23.3168 239.544 19.3036 234.062 19.3036C231.793 19.3036 229.805 20.0013 228.269 21.2238V12.2886H222.963V38.1183H226.906L227.501 36.0253C229.143 37.6638 231.409 38.6079 234.062 38.6079ZM228.058 28.9366C228.058 25.9699 230.154 23.8417 233.121 23.8417C236.123 23.8417 238.18 25.9699 238.18 28.9366C238.18 31.9385 236.123 34.0347 233.121 34.0347C230.154 34.0347 228.058 31.9385 228.058 28.9366Z" fill="white"/>
<path d="M256.081 38.6076C260.584 38.6076 264.146 36.3034 265.749 32.4278H260.376C259.502 33.6504 257.931 34.348 256.187 34.348C253.777 34.348 251.892 32.9879 251.402 30.4725H266.098C266.412 23.771 262.434 19.3034 256.152 19.3034C250.218 19.3034 246.131 23.2493 246.131 28.9363C246.131 34.6617 250.183 38.6076 256.081 38.6076ZM251.437 27.1217C252.033 24.8879 253.847 23.5278 256.187 23.5278C258.629 23.5278 260.376 24.8879 260.968 27.1217H251.437Z" fill="white"/>
<path d="M270.082 38.1183H275.388V31.1384H278.249L282.297 38.1183H288.477L283.206 29.3558C284.182 28.4853 284.95 27.2628 285.545 25.6211L287.674 19.7933H281.948L280.659 23.7713C279.961 25.8323 278.982 26.3891 276.748 26.3891H275.388V12.2886H270.082V38.1183Z" fill="white"/>
<path d="M36.8219 14.7064C37.6064 14.7064 38.2408 15.3423 38.2408 16.1254C38.2408 16.9085 37.6064 17.5443 36.8219 17.5443C36.0388 17.5443 35.4043 16.9085 35.4043 16.1254C35.4043 15.3423 36.0388 14.7064 36.8219 14.7064Z" fill="white"/>
<mask id="mask0_106_2469" style="mask-type:luminance" maskUnits="userSpaceOnUse" x="0" y="25" width="39" height="27">
<path d="M0 25.6195H38.3694V51.0009H0V25.6195Z" fill="white"/>
</mask>
<g mask="url(#mask0_106_2469)">
<path d="M38.1162 38.635C38.1768 40.1324 37.8712 41.6615 37.1845 43.2194C36.3821 43.5305 35.5715 43.8085 34.7416 44.0493C32.4982 44.7127 30.175 45.1393 27.8299 45.3196C25.4833 45.4999 22.9248 45.7133 20.5782 45.4077C18.2372 45.1022 16.7728 44.8558 18.3032 45.3747C19.846 45.8991 21.4411 46.2789 23.0541 46.5115C26.3132 46.9739 29.5351 46.7097 32.7666 46.1633C33.7864 45.9913 34.8572 45.8481 35.8495 45.5426C34.6865 47.5217 33.3653 48.6764 30.5742 50.4931C28.9323 50.8275 27.2367 50.9982 25.4971 50.9982C11.4645 50.9982 0.0839536 39.6631 0 25.6498C0.111479 25.8259 6.24008 35.6911 16.7026 39.2323C26.6518 42.607 36.967 39.052 38.1162 38.635Z" fill="white"/>
</g>
<mask id="mask1_106_2469" style="mask-type:luminance" maskUnits="userSpaceOnUse" x="0" y="0" width="51" height="42">
<path d="M0 0H50.9996V41.1207H0V0Z" fill="white"/>
</mask>
<g mask="url(#mask1_106_2469)">
<path d="M46.305 39.6083C47.033 37.0168 46.8431 34.1293 45.5439 31.7649C44.5846 30.0115 43.0872 28.6311 41.7343 27.1557C40.3801 25.6872 39.3368 24.0357 39.5171 22.0428C39.7401 19.5903 46.8431 20.8881 49.8324 21.4359C50.1668 21.4964 50.3747 21.0932 50.1393 20.8509C49.3603 20.0678 47.779 19.0301 45.2425 18.3433C44.5667 18.163 44.0382 17.9071 43.657 17.7736C43.3928 17.797 43.0184 17.8561 42.6097 18.0419C41.9243 18.3475 41.5155 18.8168 41.3214 19.0755C41.4371 18.7232 41.7013 18.0984 42.3 17.574C42.5271 17.3744 42.7487 17.2354 42.9482 17.1295C42.9482 17.1295 42.7721 16.7909 42.7349 16.5858C42.3729 14.6439 41.265 12.8354 39.6011 11.7785C35.1282 8.9323 29.8708 12.7666 28.9665 17.4075C28.4284 20.1655 29.0409 23.7632 30.6952 26.0904C32.3178 28.3668 34.2281 30.4381 35.8879 32.6911C37.2366 34.5271 37.9 35.6116 38.0197 37.5824C37.1252 36.2006 31.2333 28.2925 21.5263 25.0046C11.0308 21.4496 0.126484 25.6032 0.00537109 25.65C0.00537109 25.5991 0.00537109 25.5523 0.00537109 25.5014C0.00537109 11.4179 11.4189 0.00434113 25.5038 0.00434113C39.5873 0.00434113 51.0009 11.4179 51.0009 25.5014C51.0009 31.2364 49.1043 36.5296 45.9114 40.7906C46.0586 40.4052 46.1935 40.0074 46.305 39.6083Z" fill="white"/>
</g>
</svg>
